# xmcd
#
# Track frame offsets:
# 150
# 7000
# 18127
# 28240
# 42465
# 57310
# 67900
# 80227
# 97820
# 114637
# 127730
# 137727
# 151615
#
# Disc length: 2289 seconds
#
#
# Revision: 2
# Processed by: cddbd v1.5.2PL0 Copyright (c) Steve Scherf et al.
# Submitted via: FreeRIP 2.95 
#
DISCID=9f08ef0d
DTITLE=Os Ostras - Os Ostras
DYEAR=1996
DGENRE=Surf Music
TTITLE0=Aero Surf
TTITLE1=Uma, Duas ou Três (Punheta)
TTITLE2=O Homem que Comia Sabonete
TTITLE3=Parabéns pra Você
TTITLE4=Descendo a Serra
TTITLE5=A Solução
TTITLE6=El toro
TTITLE7=Banana
TTITLE8=A Série
TTITLE9=Hullah!
TTITLE10=Surf Barra
TTITLE11=Cai na Água José
TTITLE12=Mandrake
EXTD=
EXTT0=
EXTT1=
EXTT2=
EXTT3=
EXTT4=
EXTT5=
EXTT6=
EXTT7=
EXTT8=
EXTT9=
EXTT10=
EXTT11=
EXTT12=
PLAYORDER=
